#define PlayerLeftWins_width 128
#define PlayerLeftWins_height 64
static unsigned char PlayerLeftWins_bits[] = {
   0x00, 0x00, 0x00, 0x00, 0x00, 0x00, 0x00, 0x00, 0x00, 0x00, 0x00, 0x00,
   0x00, 0x00, 0x00, 0x00, 0x00, 0x00, 0x00, 0x00, 0x00, 0x00, 0x00, 0x00,
   0x00, 0x00, 0x00, 0x00, 0x00, 0x00, 0x00, 0x00, 0x00, 0x00, 0x00, 0x00,
   0x00, 0x00, 0x00, 0x00, 0x00, 0x00, 0x00, 0x00, 0x00, 0x00, 0x00, 0x00,
   0xe0, 0x1f, 0x00, 0x00, 0x00, 0x00, 0x00, 0x00, 0x00, 0x00, 0x00, 0x00,
   0x00, 0x00, 0x00, 0x00, 0xf0, 0x7f, 0x00, 0x00, 0x00, 0x00, 0x00, 0x00,
   0x00, 0x00, 0x00, 0x00, 0x00, 0xc0, 0x1f, 0x00, 0xf8, 0x7f, 0x1e, 0x00,
   0x00, 0x00, 0x00, 0x00, 0x00, 0x07, 0x00, 0x00, 0x00, 0xe0, 0x1f, 0x00,
   0x7e, 0xf8, 0x1e, 0x00, 0x00, 0x00, 0x00, 0x00, 0x00, 0x07, 0x00, 0x00,
   0x00, 0xf0, 0x1f, 0x0e, 0x3e, 0xf0, 0x1e, 0x00, 0x00, 0x00, 0x00, 0x00,
   0x00, 0x07, 0x00, 0x00, 0x00, 0xf0, 0x01, 0x0e, 0x7e, 0xf0, 0x0e, 0x00,
   0x00, 0x00, 0x00, 0x00, 0x00, 0x0f, 0x00, 0x00, 0x00, 0xf8, 0x00, 0x0e,
   0x7c, 0xf0, 0x0e, 0x00, 0x00, 0x00, 0x00, 0x00, 0x00, 0x0f, 0x00, 0x00,
   0x00, 0x78, 0x00, 0x0e, 0x78, 0xf0, 0x0e, 0x00, 0x00, 0x00, 0x00, 0x00,
   0x00, 0x0e, 0x00, 0x00, 0x00, 0x38, 0x00, 0x0e, 0x70, 0x78, 0x0e, 0x00,
   0x00, 0x00, 0x00, 0x00, 0x00, 0x0e, 0x00, 0xf0, 0x1f, 0x3c, 0x00, 0x0e,
   0xf0, 0x7f, 0x0e, 0x00, 0x00, 0xc0, 0x0f, 0x00, 0x00, 0x1e, 0x00, 0xf8,
   0x1f, 0xfc, 0x07, 0x0e, 0xf0, 0x7f, 0x0e, 0x00, 0x00, 0xe0, 0x1f, 0x00,
   0x00, 0x1e, 0x00, 0xfc, 0x9f, 0xff, 0x07, 0x0e, 0xf0, 0x3f, 0x0e, 0x00,
   0x00, 0xf8, 0xdf, 0x01, 0x00, 0x1c, 0x00, 0x7e, 0x9c, 0xff, 0x07, 0x7e,
   0xf0, 0x00, 0x0f, 0x3e, 0xc7, 0xf9, 0xde, 0xf3, 0x03, 0x1c, 0x00, 0x3e,
   0x9c, 0x1f, 0xc0, 0xff, 0xe0, 0x00, 0x0f, 0x3f, 0xcf, 0x39, 0xdc, 0xff,
   0x03, 0x3c, 0x00, 0xfe, 0x1f, 0x1c, 0xe0, 0xff, 0xe0, 0x00, 0x87, 0x3f,
   0xcf, 0x79, 0xde, 0xff, 0x03, 0x3c, 0x00, 0xfe, 0x1f, 0x1c, 0xe0, 0xff,
   0xe0, 0x00, 0x87, 0x3f, 0xce, 0xfb, 0x8f, 0x3f, 0x00, 0x38, 0x00, 0xfe,
   0x0f, 0x1c, 0xe0, 0x0f, 0xe0, 0x01, 0xc7, 0x7b, 0xde, 0xfb, 0x0f, 0x1f,
   0x00, 0x38, 0x00, 0x0e, 0x00, 0x1c, 0x00, 0x0e, 0xe0, 0x01, 0xc7, 0x7b,
   0xfe, 0xbb, 0x0f, 0x0f, 0x00, 0x38, 0x00, 0x1e, 0x00, 0x3c, 0x00, 0x0e,
   0xc0, 0x01, 0xc7, 0x7b, 0xfe, 0x7b, 0x0f, 0x07, 0x00, 0x3c, 0x00, 0x1e,
   0x00, 0x3c, 0x00, 0x0e, 0xe0, 0x01, 0xc7, 0xf9, 0xfc, 0x73, 0x00, 0x07,
   0x00, 0x3c, 0x00, 0x3c, 0x38, 0x78, 0x00, 0x0f, 0xe0, 0x01, 0xc7, 0xf9,
   0x80, 0xf3, 0x00, 0x07, 0x00, 0x3c, 0x00, 0xfc, 0x3e, 0x78, 0x00, 0x0f,
   0xf0, 0x01, 0xc7, 0xff, 0x80, 0xf7, 0x00, 0x07, 0x00, 0xfc, 0x1f, 0xfc,
   0x3f, 0x78, 0x80, 0x07, 0xf0, 0x00, 0xc7, 0xff, 0x01, 0xf7, 0x01, 0x07,
   0x00, 0xfc, 0x7f, 0xf0, 0x3f, 0x70, 0x80, 0x07, 0xf0, 0x00, 0x80, 0xff,
   0x03, 0xe7, 0x0f, 0x07, 0x00, 0xfc, 0xff, 0xe0, 0x07, 0x70, 0x80, 0x07,
   0x70, 0x00, 0x80, 0xdf, 0x03, 0xe7, 0x0f, 0x07, 0x00, 0x1c, 0xfc, 0x00,
   0x00, 0x70, 0x80, 0x03, 0x00, 0x00, 0x00, 0xc0, 0x83, 0xc7, 0x07, 0x07,
   0x00, 0x00, 0xf0, 0x00, 0x00, 0x00, 0x80, 0x03, 0x00, 0x00, 0x00, 0x00,
   0xc0, 0x07, 0x00, 0x00, 0x00, 0x00, 0x00, 0x00, 0x00, 0x00, 0x00, 0x00,
   0x00, 0x00, 0x00, 0x00, 0xe7, 0x03, 0x00, 0x00, 0x00, 0x00, 0x00, 0x00,
   0x00, 0x00, 0x00, 0x00, 0x00, 0x00, 0x00, 0x00, 0xef, 0x03, 0x00, 0x00,
   0x00, 0x00, 0x00, 0x00, 0x00, 0x00, 0x00, 0x00, 0x00, 0x00, 0x00, 0x00,
   0xff, 0x00, 0x00, 0x00, 0x00, 0x00, 0x00, 0x00, 0x00, 0x00, 0x00, 0x00,
   0x00, 0x00, 0x00, 0x00, 0xff, 0x00, 0x80, 0xe3, 0x38, 0x00, 0x00, 0x00,
   0x00, 0x00, 0x00, 0x00, 0x00, 0x00, 0x00, 0x00, 0x7e, 0x00, 0x8e, 0xe3,
   0x78, 0x00, 0x00, 0x00, 0x00, 0x00, 0x00, 0x00, 0x00, 0x00, 0x00, 0x00,
   0x3e, 0xe7, 0x8e, 0xe3, 0xf8, 0x1c, 0x00, 0x00, 0x00, 0x00, 0x00, 0x00,
   0x00, 0x00, 0x00, 0x00, 0x00, 0xe7, 0x8e, 0xe3, 0xf8, 0x1c, 0x3e, 0x00,
   0x00, 0x00, 0x00, 0x00, 0x00, 0x00, 0x00, 0x00, 0x00, 0xe7, 0x8e, 0xe3,
   0xf8, 0x1d, 0x3f, 0x00, 0x00, 0x00, 0x00, 0x00, 0x00, 0x00, 0x00, 0x00,
   0x00, 0xef, 0xcf, 0xe3, 0xf8, 0x9d, 0x3f, 0x00, 0x00, 0x00, 0x00, 0x00,
   0x00, 0x00, 0x00, 0x00, 0x00, 0xef, 0xcf, 0xe3, 0xf8, 0x9f, 0x07, 0x00,
   0x00, 0x00, 0x00, 0x00, 0x00, 0x00, 0x00, 0x00, 0x00, 0xde, 0xcf, 0xe3,
   0xf8, 0x9f, 0x07, 0x00, 0x00, 0x00, 0x00, 0x00, 0x00, 0x00, 0x00, 0x00,
   0x00, 0xfe, 0xdf, 0xe1, 0xf8, 0x9f, 0x07, 0x00, 0x00, 0x00, 0x00, 0x00,
   0x00, 0x00, 0x00, 0x00, 0x00, 0xbe, 0xff, 0xe1, 0xf8, 0x8f, 0x3f, 0x00,
   0x00, 0x00, 0x00, 0x00, 0x00, 0x00, 0x00, 0x00, 0x00, 0xfc, 0xff, 0xe1,
   0xb8, 0x8f, 0x7f, 0x00, 0x00, 0x00, 0x00, 0x00, 0x00, 0x00, 0x00, 0x00,
   0x00, 0xf8, 0xff, 0xe1, 0xb8, 0x0f, 0x7f, 0x00, 0x00, 0x00, 0x00, 0x00,
   0x00, 0x00, 0x00, 0x00, 0x00, 0xf8, 0xfb, 0xe1, 0xb8, 0x0f, 0x70, 0x00,
   0x00, 0x00, 0x00, 0x00, 0x00, 0x00, 0x00, 0x00, 0x00, 0xf0, 0xf1, 0xe0,
   0xb8, 0x0f, 0x7c, 0x00, 0x00, 0x00, 0x00, 0x00, 0x00, 0x00, 0x00, 0x00,
   0x00, 0xf0, 0xf0, 0xe0, 0x38, 0x8f, 0x7f, 0x00, 0x00, 0x00, 0x00, 0x00,
   0x00, 0x00, 0x00, 0x00, 0x00, 0xe0, 0x00, 0x00, 0x00, 0x8f, 0x7f, 0x00,
   0x00, 0x00, 0x00, 0x00, 0x00, 0x00, 0x00, 0x00, 0x00, 0x00, 0x00, 0x00,
   0x00, 0x8f, 0x1f, 0x00, 0x00, 0x00, 0x00, 0x00, 0x00, 0x00, 0x00, 0x00,
   0x00, 0x00, 0x00, 0x00, 0x00, 0x00, 0x00, 0x00, 0x00, 0x00, 0x00, 0x00,
   0x00, 0x00, 0x00, 0x00, 0x00, 0x00, 0x00, 0x00, 0x00, 0x00, 0x00, 0x00,
   0x00, 0x00, 0x00, 0x00, 0x00, 0x00, 0x00, 0x00, 0x00, 0x00, 0x00, 0x00,
   0x00, 0x00, 0x00, 0x00, 0x00, 0x00, 0x00, 0x00, 0x00, 0x00, 0x00, 0x00,
   0x00, 0x00, 0x00, 0x00, 0x00, 0x00, 0x00, 0x00, 0x00, 0x00, 0x00, 0x00,
   0x00, 0x00, 0x00, 0x00, 0x00, 0x00, 0x00, 0x00, 0x00, 0x00, 0x00, 0x00,
   0x00, 0x00, 0x00, 0x00, 0x00, 0x00, 0x00, 0x00, 0x00, 0x00, 0x00, 0x00,
   0x00, 0x00, 0x00, 0x00, 0x00, 0x00, 0x00, 0x00, 0x00, 0x00, 0x00, 0x00,
   0x00, 0x00, 0x00, 0x00, 0x00, 0x00, 0x00, 0x00, 0x00, 0x00, 0x00, 0x00,
   0x00, 0x00, 0x00, 0x00, 0x00, 0x00, 0x00, 0x00, 0x00, 0x00, 0x00, 0x00,
   0x00, 0x00, 0x00, 0x00, 0x00, 0x00, 0x00, 0x00, 0x00, 0x00, 0x00, 0x00,
   0x00, 0x00, 0x00, 0x00, 0x00, 0x00, 0x00, 0x00, 0x00, 0x00, 0x00, 0x00,
   0x00, 0x00, 0x00, 0x00, 0x00, 0x00, 0x00, 0x00, 0x00, 0x00, 0x00, 0x00,
   0x00, 0x00, 0x00, 0x00, 0x00, 0x00, 0x00, 0x00, 0x00, 0x00, 0x00, 0x00,
   0x00, 0x00, 0x00, 0x00, 0x00, 0x00, 0x00, 0x00, 0x00, 0x00, 0x00, 0x00,
   0x00, 0x00, 0x00, 0x00, 0x00, 0x00, 0x00, 0x00, 0x00, 0x00, 0x00, 0x00,
   0x00, 0x00, 0x00, 0x00, 0x00, 0x00, 0x00, 0x00, 0x00, 0x00, 0x00, 0x00,
   0x00, 0x00, 0x00, 0x00, 0x00, 0x00, 0x00, 0x00, 0x00, 0x00, 0x00, 0x00,
   0x00, 0x00, 0x00, 0x00 };
