#define Startmenu_width 128
#define Startmenu_height 64
static unsigned char Startmenu_bits[] = {
   0x00, 0x00, 0x00, 0x00, 0x00, 0x00, 0x00, 0x00, 0x00, 0x00, 0x00, 0x00,
   0x00, 0x00, 0x00, 0x00, 0x00, 0x00, 0x00, 0x00, 0x00, 0x00, 0x00, 0x00,
   0x00, 0x00, 0x00, 0x00, 0x00, 0x00, 0x00, 0x00, 0x00, 0x00, 0x00, 0x00,
   0x00, 0x00, 0x00, 0x00, 0x00, 0x00, 0x00, 0x00, 0x00, 0x00, 0x00, 0x00,
   0x00, 0x00, 0x00, 0x00, 0x00, 0x00, 0x00, 0x00, 0x00, 0x00, 0x00, 0x00,
   0x00, 0xf0, 0xff, 0x00, 0x00, 0x00, 0x00, 0x00, 0x00, 0x00, 0x00, 0x00,
   0x00, 0x00, 0x00, 0x00, 0x00, 0xfc, 0xff, 0x01, 0x00, 0x00, 0x00, 0x00,
   0x00, 0x00, 0x00, 0x00, 0x00, 0x00, 0x00, 0x00, 0x00, 0xff, 0xff, 0x07,
   0x00, 0x00, 0x00, 0x00, 0x00, 0x00, 0x00, 0x00, 0x00, 0x00, 0x00, 0x00,
   0xe0, 0x3f, 0xe0, 0x07, 0x00, 0x00, 0x00, 0x00, 0x00, 0x00, 0x00, 0x00,
   0x00, 0x00, 0x00, 0x00, 0xf8, 0x0f, 0x80, 0x07, 0x00, 0x00, 0x00, 0x00,
   0x00, 0x00, 0x00, 0x00, 0x00, 0x00, 0x00, 0x00, 0xf8, 0x03, 0x00, 0x07,
   0x00, 0x00, 0x00, 0x00, 0x00, 0x00, 0x00, 0x00, 0x00, 0x00, 0x00, 0x00,
   0x7c, 0x00, 0x00, 0x07, 0x00, 0x00, 0x00, 0x00, 0x00, 0x00, 0x00, 0x00,
   0x00, 0x00, 0x00, 0x00, 0x3c, 0x00, 0x00, 0x07, 0x00, 0xc0, 0x3f, 0x00,
   0x00, 0x00, 0x00, 0x00, 0x00, 0x00, 0x00, 0x00, 0x1e, 0x00, 0x00, 0x07,
   0x00, 0xfe, 0x7f, 0x00, 0x00, 0x00, 0x00, 0x00, 0x00, 0x00, 0x00, 0x00,
   0x1e, 0x00, 0x80, 0x07, 0xc0, 0xff, 0xff, 0x00, 0x00, 0x00, 0x00, 0x00,
   0x00, 0x00, 0x00, 0x00, 0x0f, 0x00, 0x80, 0x07, 0xc0, 0xff, 0xf9, 0x01,
   0x7f, 0x00, 0x00, 0x00, 0x00, 0x00, 0x00, 0x00, 0x0f, 0x00, 0xc0, 0x03,
   0xc0, 0x07, 0xf0, 0x01, 0xff, 0x00, 0x0e, 0x00, 0x38, 0x00, 0x00, 0x00,
   0x07, 0x00, 0xc0, 0x03, 0x80, 0x0f, 0xe0, 0x81, 0xff, 0x01, 0x3e, 0x00,
   0x38, 0x00, 0x1f, 0x80, 0x07, 0x00, 0xe0, 0x03, 0x00, 0x0f, 0xc0, 0x81,
   0xe7, 0x03, 0x3e, 0x00, 0x3c, 0xc0, 0x1f, 0x80, 0x07, 0x00, 0xe0, 0x01,
   0x00, 0x0e, 0xc0, 0xc1, 0xe3, 0x03, 0x7c, 0x00, 0x3e, 0xe0, 0x1f, 0x80,
   0x03, 0x00, 0xf0, 0x01, 0x00, 0x1e, 0xc0, 0xc1, 0xc3, 0x07, 0x7c, 0x00,
   0x1e, 0xf8, 0x1f, 0x80, 0x03, 0x00, 0xf8, 0x00, 0x00, 0x1e, 0xc0, 0xe1,
   0x81, 0x07, 0xf8, 0x00, 0x0f, 0xfc, 0x01, 0x00, 0x00, 0x00, 0x7c, 0x00,
   0x00, 0x1c, 0xc0, 0xe1, 0x81, 0x07, 0xf8, 0x00, 0x0f, 0x7e, 0x00, 0x00,
   0x00, 0x00, 0x3e, 0x00, 0x00, 0x3c, 0xe0, 0xf1, 0x00, 0x0f, 0xf0, 0x81,
   0x07, 0x3e, 0x00, 0x00, 0x00, 0x80, 0x1f, 0x00, 0x00, 0x7c, 0xe0, 0xf1,
   0x00, 0x0f, 0xf0, 0x81, 0x07, 0x1f, 0x00, 0x00, 0x00, 0xe0, 0x0f, 0x00,
   0x00, 0xf8, 0xff, 0x70, 0x00, 0x0f, 0xe0, 0x83, 0x07, 0x0f, 0x00, 0x00,
   0x00, 0xf0, 0x07, 0x00, 0x00, 0xf8, 0xff, 0x78, 0x00, 0x1e, 0xe0, 0x87,
   0x83, 0x07, 0x00, 0x00, 0x00, 0xf8, 0x01, 0x00, 0x00, 0xf8, 0xff, 0x78,
   0x00, 0x3e, 0xe0, 0x87, 0x83, 0x07, 0xff, 0x00, 0x00, 0xfc, 0x00, 0x00,
   0x00, 0x78, 0x00, 0x78, 0x00, 0x3c, 0xe0, 0x8f, 0xc3, 0xc3, 0xff, 0x00,
   0x00, 0x3e, 0x00, 0x00, 0x00, 0x70, 0x00, 0x38, 0x00, 0x3c, 0xe0, 0x9f,
   0xc3, 0xe3, 0xff, 0x00, 0x00, 0x1f, 0x00, 0x00, 0x00, 0x70, 0x00, 0x38,
   0x00, 0x3c, 0xe0, 0x9f, 0xc3, 0xf9, 0xe7, 0x00, 0x00, 0x1f, 0x00, 0x00,
   0x00, 0x70, 0x00, 0x38, 0x00, 0x3c, 0xc0, 0xbd, 0xc3, 0xf9, 0xe1, 0x00,
   0x80, 0x0f, 0x00, 0x00, 0x00, 0x70, 0x00, 0x38, 0x00, 0x1c, 0xc0, 0xfd,
   0xc3, 0x79, 0xe0, 0x01, 0x80, 0x07, 0x00, 0x00, 0x00, 0x70, 0x00, 0x78,
   0x00, 0x1e, 0xc0, 0xf9, 0xc3, 0x39, 0xe0, 0x01, 0xc0, 0x03, 0x00, 0x00,
   0x00, 0x70, 0x00, 0x78, 0x00, 0x1e, 0xc0, 0xf9, 0xc3, 0x01, 0xc0, 0x01,
   0xe0, 0x03, 0x00, 0x00, 0x00, 0x70, 0x00, 0xf0, 0x00, 0x0e, 0xc0, 0xf1,
   0xc3, 0x01, 0xc0, 0x01, 0xe0, 0x01, 0x00, 0x00, 0x00, 0x70, 0x00, 0xf0,
   0x00, 0x0f, 0xc0, 0xf1, 0xc3, 0x01, 0xc0, 0x01, 0xe0, 0x00, 0x00, 0x00,
   0x00, 0x70, 0x00, 0xe0, 0x01, 0x0f, 0xc0, 0xe1, 0xc3, 0x03, 0xc0, 0x03,
   0xf0, 0x00, 0x00, 0x00, 0x00, 0x70, 0x00, 0xe0, 0x81, 0x07, 0xc0, 0xe1,
   0xc3, 0x03, 0xc0, 0x03, 0xf0, 0x00, 0x00, 0x00, 0x00, 0x78, 0x00, 0xe0,
   0xc7, 0x07, 0xc0, 0xc1, 0x83, 0x03, 0xc0, 0x03, 0x70, 0x00, 0x00, 0x00,
   0x00, 0x78, 0x00, 0xc0, 0xff, 0x03, 0xc0, 0xc1, 0x83, 0x07, 0x80, 0x03,
   0x78, 0x00, 0x00, 0x00, 0x00, 0x3c, 0x00, 0x80, 0xff, 0x01, 0xc0, 0x81,
   0x83, 0x0f, 0x9c, 0x03, 0x78, 0x00, 0xf0, 0x1f, 0x00, 0x3e, 0x00, 0x00,
   0xfe, 0x01, 0xc0, 0x81, 0x83, 0xff, 0x9f, 0x03, 0x78, 0x00, 0xff, 0x1f,
   0x00, 0x1e, 0x00, 0x00, 0xf8, 0x00, 0xe0, 0x81, 0x03, 0xff, 0x9f, 0x03,
   0x78, 0xe0, 0xff, 0x1f, 0x00, 0x1e, 0x00, 0x00, 0x00, 0x00, 0xe0, 0x81,
   0x03, 0xfc, 0x8f, 0x03, 0xf8, 0xff, 0x3f, 0x00, 0x00, 0x00, 0x00, 0x00,
   0x00, 0x00, 0xe0, 0x80, 0x03, 0xf0, 0x81, 0x03, 0xf8, 0xff, 0x03, 0x00,
   0x00, 0x00, 0x00, 0x00, 0x00, 0x00, 0xe0, 0x00, 0x00, 0x00, 0x80, 0x03,
   0xe0, 0x7f, 0x00, 0x00, 0x00, 0x00, 0x00, 0x00, 0x00, 0x00, 0x00, 0x00,
   0x00, 0x00, 0x80, 0x07, 0x00, 0x00, 0x00, 0x00, 0x00, 0x00, 0x00, 0x00,
   0x00, 0x00, 0x00, 0x00, 0x00, 0x00, 0x80, 0x07, 0x00, 0x00, 0x00, 0x00,
   0x00, 0x00, 0x00, 0x00, 0x00, 0x00, 0x00, 0x00, 0x00, 0x00, 0x00, 0x07,
   0x00, 0x00, 0x00, 0x00, 0x00, 0x00, 0x00, 0x00, 0x00, 0x00, 0x00, 0x00,
   0x00, 0x00, 0x00, 0x07, 0x00, 0x00, 0x00, 0x00, 0x00, 0x00, 0x00, 0x00,
   0x00, 0x00, 0x00, 0x00, 0x00, 0x00, 0x00, 0x07, 0x00, 0x00, 0x00, 0x00,
   0x00, 0x00, 0x00, 0x00, 0x00, 0x00, 0x00, 0x00, 0x00, 0x00, 0x00, 0x07,
   0x00, 0x00, 0x00, 0x00, 0x00, 0x00, 0x00, 0x00, 0x00, 0x00, 0x00, 0x00,
   0x00, 0x00, 0x00, 0x00, 0x00, 0x00, 0x00, 0x00, 0x00, 0x00, 0x00, 0x00,
   0x00, 0x00, 0x00, 0x00, 0x00, 0x00, 0x00, 0x00, 0x00, 0x00, 0x00, 0x00,
   0x00, 0x00, 0x00, 0x00, 0x00, 0x00, 0x00, 0x00, 0x00, 0x00, 0x00, 0x00,
   0x00, 0x00, 0x00, 0x00, 0x00, 0x00, 0x00, 0x00, 0x00, 0x00, 0x00, 0x00,
   0x00, 0x00, 0x00, 0x00, 0x00, 0x00, 0x00, 0x00, 0x00, 0x00, 0x00, 0x00,
   0x00, 0x00, 0x00, 0x00, 0x00, 0x00, 0x00, 0x00, 0x00, 0x00, 0x00, 0x00,
   0x00, 0x00, 0x00, 0x00, 0x00, 0x00, 0x00, 0x00, 0x00, 0x00, 0x00, 0x00,
   0x00, 0x00, 0x00, 0x00, 0x00, 0x00, 0x00, 0x00, 0x00, 0x00, 0x00, 0x00,
   0x00, 0x00, 0x00, 0x00, 0x00, 0x00, 0x00, 0x00, 0x00, 0x00, 0x00, 0x00,
   0x00, 0x00, 0x00, 0x00, 0x00, 0x00, 0x00, 0x00, 0x00, 0x00, 0x00, 0x00,
   0x00, 0x00, 0x00, 0x00, 0x00, 0x00, 0x00, 0x00, 0x00, 0x00, 0x00, 0x00,
   0x00, 0x00, 0x00, 0x00, 0x00, 0x00, 0x00, 0x00, 0x00, 0x00, 0x00, 0x00,
   0x00, 0x00, 0x00, 0x00, 0x00, 0x00, 0x00, 0x00, 0x00, 0x00, 0x00, 0x00,
   0x00, 0x00, 0x00, 0x00, 0x00, 0x00, 0x00, 0x00, 0x00, 0x00, 0x00, 0x00,
   0x00, 0x00, 0x00, 0x00, 0x00, 0x00, 0x00, 0x00, 0x00, 0x00, 0x00, 0x00,
   0x00, 0x00, 0x00, 0x00 };
